<?xml version="1.0" encoding="utf-8"?>
<!-- Generator: Adobe Illustrator 16.0.0, SVG Export Plug-In . SVG Version: 6.00 Build 0)  -->
<!DOCTYPE svg PUBLIC "-//W3C//DTD SVG 1.1//EN" "http://www.w3.org/Graphics/SVG/1.1/DTD/svg11.dtd">
<svg version="1.1" id="Layer_1" xmlns="http://www.w3.org/2000/svg" xmlns:xlink="http://www.w3.org/1999/xlink" x="0px" y="0px"
	 width="200px" height="200px" viewBox="0 0 200 200" enable-background="new 0 0 200 200" xml:space="preserve">
<g>
	<g>
		<defs>
			<rect id="SVGID_1_" x="17.92" y="46.526" width="164.08" height="107.947"/>
		</defs>
		<clipPath id="SVGID_2_">
			<use xlink:href="#SVGID_1_"  overflow="visible"/>
		</clipPath>
		<path clip-path="url(#SVGID_2_)" fill="#36A18D" d="M179.761,91.346l-16.164-20.562c-2.329-2.992-5.903-4.719-9.698-4.719h-15.642
			v-7.211c0-6.807-5.522-12.329-12.329-12.329H30.246c-6.804,0-12.326,5.521-12.326,12.329v72.085
			c0,6.306,4.759,11.466,10.86,12.188c3.414,5.702,9.598,9.578,16.707,9.578c7.068,0,13.197-3.815,16.631-9.418h76.099
			c3.434,5.603,9.578,9.418,16.626,9.418c7.107,0,13.292-3.876,16.706-9.578c6.104-0.723,10.863-5.883,10.863-12.188V98.954
			C182.412,96.183,181.488,93.515,179.761,91.346L179.761,91.346z M45.432,140.317c-3.938,0-7.131-3.192-7.131-7.147
			c0-3.937,3.192-7.129,7.131-7.129c3.953,0,7.146,3.192,7.146,7.129C52.577,137.125,49.385,140.317,45.432,140.317L45.432,140.317z
			 M103.398,95.182c0,3.391-2.751,6.162-6.162,6.162h-9.342v9.321c0,3.414-2.748,6.185-6.162,6.185h-7.289
			c-3.394,0-6.165-2.771-6.165-6.185v-9.321H58.96c-3.414,0-6.185-2.771-6.185-6.162v-7.289c0-3.394,2.771-6.165,6.185-6.165h9.319
			v-9.339c0-0.401,0.043-0.803,0.118-1.182c0.567-2.834,3.055-4.982,6.046-4.982h7.289c2.992,0,5.479,2.148,6.044,4.982
			c0.078,0.379,0.118,0.781,0.118,1.182v9.339h9.342c3.391,0,6.162,2.771,6.162,6.165V95.182z M154.843,140.317
			c-3.936,0-7.148-3.192-7.148-7.147c0-3.937,3.213-7.129,7.148-7.129c3.955,0,7.147,3.192,7.147,7.129
			C161.99,137.125,158.798,140.317,154.843,140.317L154.843,140.317z M170.083,104.677h-31.826V78.393h15.662l16.164,20.562V104.677
			z M170.083,104.677"/>
	</g>
</g>
<image overflow="visible" width="48" height="36" xlink:href="EE6B4C50.jpg"  transform="matrix(1 0 0 1 -402 44)">
</image>
</svg>
