<?xml version="1.0" encoding="utf-8"?>
<!-- Generator: Adobe Illustrator 16.0.0, SVG Export Plug-In . SVG Version: 6.00 Build 0)  -->
<!DOCTYPE svg PUBLIC "-//W3C//DTD SVG 1.1//EN" "http://www.w3.org/Graphics/SVG/1.1/DTD/svg11.dtd">
<svg version="1.1" id="Layer_1" xmlns="http://www.w3.org/2000/svg" xmlns:xlink="http://www.w3.org/1999/xlink" x="0px" y="0px"
	 width="200px" height="200px" viewBox="0 0 200 200" enable-background="new 0 0 200 200" xml:space="preserve">
<g>
	<g>
		<path fill="#36A18D" d="M174.876,174.876V78.351H99.801V14H24.726v160.876H14v10.726h171.602v-10.726H174.876z M35.45,24.726
			h21.45v21.45H35.45V24.726z M35.45,56.899h21.45v21.452H35.45V56.899z M35.45,89.075h21.45v21.449H35.45V89.075z M35.45,121.251
			h21.45V142.7H35.45V121.251z M78.351,174.876H46.175v-21.45h32.176V174.876z M89.075,142.7h-21.45v-21.449h21.45V142.7z
			 M89.075,110.524h-21.45V89.075h21.45V110.524z M89.075,78.351h-21.45V56.899h21.45V78.351z M89.075,46.176h-21.45v-21.45h21.45
			V46.176z M110.524,89.075h21.452v21.449h-21.452V89.075z M110.524,121.251h21.452V142.7h-21.452V121.251z M153.426,174.876
			h-32.175v-21.45h32.175V174.876z M164.15,142.7H142.7v-21.449h21.45V142.7z M164.15,110.524H142.7V89.075h21.45V110.524z
			 M164.15,110.524"/>
	</g>
</g>
</svg>
