<?xml version="1.0" encoding="utf-8"?>
<!-- Generator: Adobe Illustrator 16.0.0, SVG Export Plug-In . SVG Version: 6.00 Build 0)  -->
<!DOCTYPE svg PUBLIC "-//W3C//DTD SVG 1.1//EN" "http://www.w3.org/Graphics/SVG/1.1/DTD/svg11.dtd">
<svg version="1.1" id="Layer_1" xmlns="http://www.w3.org/2000/svg" xmlns:xlink="http://www.w3.org/1999/xlink" x="0px" y="0px"
	 width="200px" height="200px" viewBox="0 0 200 200" enable-background="new 0 0 200 200" xml:space="preserve">
<path fill-rule="evenodd" clip-rule="evenodd" fill="#34A38B" d="M51.657,98.095c13.246-10.663,22.425-11.882,35.855-4.198
	c13.622,7.794,27.971,12.874,43.666,14.312c11.589,1.063,22.896,0.968,33.93-3.506c3.647-1.479,4.985-3.467,4.972-7.301
	c-0.072-19.938,0.039-39.876,0.123-59.814c0.023-5.59-1.893-6.882-7.039-4.691c-13.51,5.752-27.559,7.639-41.748,3.75
	c-8.744-2.396-17.204-6.069-25.498-9.821c-14.345-6.488-28.239-5.788-42.108,1.186c-1.715,0.862-2.476,1.805-2.468,3.845
	c0.076,21.294,0.035,42.588,0.039,63.881C51.381,96.378,51.527,97.019,51.657,98.095z"/>
<path fill-rule="evenodd" clip-rule="evenodd" fill="#34A38B" d="M36.689,187.119c1.984,0,3.539,0.005,5.092,0
	c4.835-0.012,4.844-0.014,4.84-4.704c-0.02-27.392-0.06-54.781-0.063-82.172c-0.002-21.516,0.043-43.033,0.06-64.549
	c0.007-9.112-0.003-9.115-9.084-8.442c-0.19,0.014-0.365,0.226-0.845,0.539C36.689,80.562,36.689,133.52,36.689,187.119z"/>
<path fill-rule="evenodd" clip-rule="evenodd" fill="#34A38B" d="M51.657,98.095c-0.13-1.076-0.276-1.717-0.276-2.357
	c-0.004-21.293,0.037-42.587-0.039-63.881c-0.008-2.04,0.753-2.982,2.468-3.845c13.869-6.974,27.763-7.674,42.108-1.186
	c8.293,3.751,16.753,7.425,25.498,9.821c14.189,3.888,28.238,2.002,41.748-3.75c5.146-2.191,7.063-0.899,7.039,4.691
	c-0.084,19.938-0.195,39.877-0.123,59.814c0.014,3.834-1.324,5.823-4.972,7.301c-11.033,4.474-22.341,4.568-33.93,3.506
	c-15.695-1.438-30.044-6.518-43.666-14.312C74.083,86.213,64.903,87.432,51.657,98.095z"/>
<path fill-rule="evenodd" clip-rule="evenodd" fill="#34A38B" d="M36.689,187.119c0-53.6,0-106.558,0-159.328
	c0.479-0.313,0.654-0.525,0.845-0.539c9.081-0.672,9.091-0.67,9.084,8.442c-0.016,21.516-0.062,43.033-0.06,64.549
	c0.003,27.391,0.043,54.78,0.063,82.172c0.004,4.69-0.005,4.692-4.84,4.704C40.228,187.124,38.674,187.119,36.689,187.119z"/>
<circle fill="#34A38B" cx="40.976" cy="17.844" r="4.966"/>
<image overflow="visible" width="42" height="38" xlink:href="88E346F7.jpg"  transform="matrix(1 0 0 1 -379 40)">
</image>
</svg>
