<?xml version="1.0" encoding="utf-8"?>
<!-- Generator: Adobe Illustrator 16.0.0, SVG Export Plug-In . SVG Version: 6.00 Build 0)  -->
<!DOCTYPE svg PUBLIC "-//W3C//DTD SVG 1.1//EN" "http://www.w3.org/Graphics/SVG/1.1/DTD/svg11.dtd">
<svg version="1.1" id="Layer_1" xmlns="http://www.w3.org/2000/svg" xmlns:xlink="http://www.w3.org/1999/xlink" x="0px" y="0px"
	 width="200px" height="200px" viewBox="0 0 200 200" enable-background="new 0 0 200 200" xml:space="preserve">
<path d="M100.586,142.092c-23.054,0-41.807-18.842-41.807-42.002c0-23.159,18.753-42,41.807-42c23.05,0,41.805,18.842,41.805,42
	C142.391,123.25,123.636,142.092,100.586,142.092L100.586,142.092z"/>
<path d="M100.586,66.252"/>
<path fill="none" d="M105.61,200H95.381c-10.032,0-18.195-8.195-18.195-18.269v-16.104c-2.164-0.778-4.296-1.67-6.378-2.667
	l-11.321,11.378c-3.435,3.456-8.006,5.357-12.87,5.357c-4.865,0.003-9.437-1.901-12.875-5.357l-7.232-7.27
	c-7.081-7.118-7.081-18.7,0-25.819l11.337-11.398c-0.996-2.104-1.887-4.257-2.666-6.441l-15.999-0.002
	c-4.865,0-9.435-1.901-12.872-5.356c-3.433-3.448-5.322-8.033-5.322-12.908V94.86c0-10.072,8.161-18.268,18.194-18.27h16
	c0.778-2.184,1.671-4.338,2.665-6.44L26.511,58.752c-3.431-3.449-5.322-8.036-5.322-12.909c0-4.876,1.889-9.461,5.322-12.911
	l7.232-7.271c3.434-3.45,8.005-5.352,12.875-5.352c4.867,0,9.439,1.899,12.872,5.352l11.319,11.379
	c2.084-0.998,4.214-1.889,6.378-2.668V18.268C77.187,8.195,85.347,0,95.38,0h10.23c10.032,0,18.193,8.195,18.193,18.268v16.105
	c2.162,0.779,4.296,1.67,6.378,2.668l11.321-11.379c3.433-3.456,8.004-5.359,12.87-5.359c4.864,0,9.436,1.904,12.874,5.359
	l7.232,7.268c7.082,7.117,7.082,18.701,0,25.82l-11.34,11.402c0.993,2.095,1.881,4.246,2.661,6.438l16.005,0.002
	c4.867,0,9.438,1.901,12.874,5.357c3.431,3.448,5.32,8.034,5.32,12.91v10.281c0,10.068-8.162,18.267-18.194,18.269h-16.005
	c-0.78,2.192-1.668,4.345-2.661,6.439l11.34,11.4c3.432,3.447,5.32,8.033,5.32,12.909c0,4.874-1.889,9.46-5.318,12.91l-7.234,7.27
	c-3.432,3.45-8.004,5.352-12.872,5.352c-4.869,0-9.441-1.898-12.876-5.352l-11.317-11.378c-2.084,0.997-4.216,1.889-6.378,2.667
	v16.104c0.003,4.874-1.89,9.46-5.321,12.909C115.045,198.097,110.475,200,105.61,200L105.61,200z"/>
<path fill="#C12F87" d="M70.007,153.944c0.652,0,1.308,0.157,1.912,0.479c3.377,1.799,6.921,3.281,10.533,4.404
	c1.699,0.528,2.858,2.1,2.858,3.879v19.025c0,5.595,4.518,10.146,10.071,10.146h10.229c2.686,0,5.213-1.052,7.115-2.964
	c1.906-1.917,2.957-4.469,2.954-7.18l0.003-19.027c0-1.78,1.158-3.353,2.855-3.879c3.611-1.123,7.157-2.605,10.533-4.404
	c1.58-0.842,3.526-0.551,4.79,0.719l13.398,13.467c1.896,1.907,4.425,2.958,7.115,2.958c2.689,0,5.217-1.051,7.114-2.958l7.233-7.27
	c1.907-1.918,2.957-4.469,2.957-7.181c0-2.715-1.05-5.265-2.957-7.181l-13.398-13.468c-1.253-1.259-1.541-3.188-0.713-4.76
	c1.775-3.367,3.249-6.934,4.378-10.598c0.522-1.705,2.1-2.866,3.882-2.866h18.935c5.554-0.002,10.072-4.555,10.072-10.146V94.86
	c0-2.714-1.05-5.266-2.957-7.182c-1.901-1.912-4.424-2.963-7.106-2.963l-18.943-0.001c-1.784,0-3.357-1.164-3.882-2.866
	c-1.129-3.665-2.603-7.23-4.378-10.598c-0.83-1.572-0.542-3.5,0.713-4.761l13.398-13.465c3.938-3.96,3.938-10.407,0-14.364
	l-7.233-7.269c-1.904-1.913-4.431-2.965-7.114-2.965c-2.688,0-5.215,1.053-7.114,2.963l-13.397,13.468
	c-1.265,1.271-3.212,1.563-4.792,0.719c-3.374-1.799-6.92-3.28-10.533-4.404c-1.7-0.528-2.855-2.099-2.855-3.877V18.268
	c0-5.594-4.52-10.145-10.072-10.145H95.38c-5.553,0-10.07,4.551-10.07,10.145v19.028c0,1.777-1.159,3.349-2.858,3.877
	c-3.613,1.123-7.159,2.604-10.533,4.404c-1.581,0.841-3.528,0.552-4.79-0.719L53.73,31.389c-1.898-1.905-4.422-2.956-7.113-2.956
	c-2.691,0-5.217,1.051-7.118,2.958l-7.232,7.271c-1.907,1.915-2.958,4.466-2.958,7.182c0.002,2.711,1.052,5.262,2.958,7.181
	l13.398,13.465c1.253,1.261,1.543,3.189,0.712,4.76c-1.788,3.39-3.265,6.957-4.385,10.597c-0.524,1.704-2.098,2.868-3.88,2.868
	H19.184c-5.552,0-10.071,4.552-10.071,10.144v10.283c0,2.713,1.049,5.265,2.957,7.18c1.901,1.912,4.429,2.964,7.11,2.964
	l18.934,0.002c1.782,0,3.356,1.161,3.88,2.866c1.12,3.637,2.596,7.203,4.388,10.597c0.829,1.572,0.539,3.499-0.714,4.761
	l-13.398,13.468c-3.938,3.96-3.938,10.403,0.002,14.361l7.232,7.27c1.901,1.913,4.429,2.963,7.115,2.963
	c2.684,0,5.211-1.052,7.113-2.963l13.397-13.467C67.909,154.356,68.953,153.944,70.007,153.944L70.007,153.944z"/>
<path d="M70.007,153.944"/>
<path fill="#FFFFFF" d="M100.586,66.252c-18.551,0-33.645,15.179-33.645,33.837s15.093,33.838,33.645,33.838
	c18.55,0,33.642-15.18,33.642-33.838S119.136,66.252,100.586,66.252L100.586,66.252z"/>
</svg>
