<?xml version="1.0" encoding="utf-8"?>
<!-- Generator: Adobe Illustrator 16.0.0, SVG Export Plug-In . SVG Version: 6.00 Build 0)  -->
<!DOCTYPE svg PUBLIC "-//W3C//DTD SVG 1.1//EN" "http://www.w3.org/Graphics/SVG/1.1/DTD/svg11.dtd">
<svg version="1.1" id="Layer_1" xmlns="http://www.w3.org/2000/svg" xmlns:xlink="http://www.w3.org/1999/xlink" x="0px" y="0px"
	 width="200px" height="200px" viewBox="0 0 200 200" enable-background="new 0 0 200 200" xml:space="preserve">
<g>
	<path d="M181.293,50.735"/>
</g>
<path fill="#32A089" d="M135.122,111.604c-6.399,5.913-13.562,11.072-21.313,15.382v58.527h21.313V111.604z M135.122,111.604"/>
<path fill="#32A089" d="M81.849,185.514h21.304v-53.308c-6.771,2.887-13.898,5.165-21.304,6.754V185.514z M81.849,185.514"/>
<path fill="#32A089" d="M145.778,185.514h21.304V56.061h-0.537c-3.339,16.525-10.604,31.472-20.767,44.107V185.514z
	 M145.778,185.514"/>
<path fill="#32A089" d="M39.233,140.383c-7.241-1.059-14.368-2.758-21.313-5.145v50.275h21.313V140.383z M39.233,140.383"/>
<path fill="#32A089" d="M49.879,185.514h21.314v-44.768c-4.848,0.588-9.781,0.902-14.801,0.902c-2.175,0-4.344-0.087-6.513-0.199
	V185.514z M49.879,185.514"/>
</svg>
