<?xml version="1.0" encoding="utf-8"?>
<!-- Generator: Adobe Illustrator 16.0.0, SVG Export Plug-In . SVG Version: 6.00 Build 0)  -->
<!DOCTYPE svg PUBLIC "-//W3C//DTD SVG 1.1//EN" "http://www.w3.org/Graphics/SVG/1.1/DTD/svg11.dtd">
<svg version="1.1" id="Layer_1" xmlns="http://www.w3.org/2000/svg" xmlns:xlink="http://www.w3.org/1999/xlink" x="0px" y="0px"
	 width="200px" height="200px" viewBox="0 0 200 200" enable-background="new 0 0 200 200" xml:space="preserve">
<g>
	<g>
		<defs>
			<rect id="SVGID_1_" x="9.023" y="9" width="180.914" height="181"/>
		</defs>
		<clipPath id="SVGID_2_">
			<use xlink:href="#SVGID_1_"  overflow="visible"/>
		</clipPath>
		<path clip-path="url(#SVGID_2_)" fill="#C12F87" d="M163.38,35.544C128.137,0.299,70.802,0.299,35.565,35.536
			c-35.243,35.244-35.243,92.578,0,127.821c35.236,35.235,92.571,35.235,127.807-0.008
			C198.615,128.113,198.615,70.779,163.38,35.544L163.38,35.544z M153.515,153.492c-29.794,29.804-78.289,29.812-108.092,0.009
			c-29.812-29.804-29.802-78.305,0-108.108c29.804-29.795,78.289-29.803,108.101,0.008
			C183.317,75.196,183.317,123.697,153.515,153.492L153.515,153.492z M65.761,74.987c0-5.831,4.722-10.563,10.561-10.563
			c5.833,0,10.556,4.732,10.556,10.563c0,5.839-4.724,10.564-10.556,10.564C70.483,85.551,65.761,80.826,65.761,74.987
			L65.761,74.987z M113.655,74.987c0-5.831,4.732-10.563,10.564-10.563c5.83,0,10.563,4.732,10.563,10.563
			c0,5.839-4.726,10.564-10.563,10.564C118.388,85.551,113.655,80.826,113.655,74.987L113.655,74.987z M138.626,118.251
			c-6.548,15.136-21.877,24.918-39.053,24.918c-17.551,0-32.973-9.823-39.295-25.045c-1.081-2.604,0.151-5.598,2.763-6.679
			c0.64-0.267,1.305-0.392,1.955-0.392c2.005,0,3.909,1.189,4.724,3.152c4.734,11.388,16.446,18.749,29.854,18.749
			c13.101,0,24.747-7.369,29.677-18.757c1.116-2.595,4.126-3.793,6.714-2.671C138.559,112.651,139.748,115.661,138.626,118.251
			L138.626,118.251z M138.626,118.251"/>
	</g>
</g>
</svg>
