<?xml version="1.0" encoding="utf-8"?>
<!-- Generator: Adobe Illustrator 16.0.0, SVG Export Plug-In . SVG Version: 6.00 Build 0)  -->
<!DOCTYPE svg PUBLIC "-//W3C//DTD SVG 1.1//EN" "http://www.w3.org/Graphics/SVG/1.1/DTD/svg11.dtd">
<svg version="1.1" id="Layer_1" xmlns="http://www.w3.org/2000/svg" xmlns:xlink="http://www.w3.org/1999/xlink" x="0px" y="0px"
	 width="200px" height="200px" viewBox="0 0 200 200" enable-background="new 0 0 200 200" xml:space="preserve">
<g>
	<g>
		<path fill="#32A98A" d="M61.888,81.134c0.037-0.571-0.155-1.134-0.532-1.564L44.265,60.128c-0.377-0.43-0.911-0.692-1.482-0.729
			c-0.573-0.035-1.133,0.154-1.563,0.533c-7.853,6.902-14.371,15.043-19.374,24.196c-0.273,0.502-0.339,1.092-0.177,1.641
			c0.16,0.549,0.533,1.011,1.035,1.287L45.418,99.47c0.329,0.18,0.684,0.266,1.034,0.266c0.763,0,1.502-0.406,1.895-1.124
			c3.306-6.048,7.617-11.43,12.812-15.997C61.59,82.238,61.851,81.705,61.888,81.134L61.888,81.134z M61.888,81.134"/>
		<path fill="#32A98A" d="M69.513,73.933c0.388,0.73,1.136,1.147,1.909,1.147c0.34,0,0.687-0.081,1.008-0.252
			c6.089-3.228,12.638-5.335,19.468-6.262c1.18-0.16,2.007-1.248,1.847-2.428l-3.479-25.651c-0.16-1.181-1.25-2.007-2.428-1.848
			c-10.372,1.407-20.316,4.604-29.558,9.507c-1.052,0.559-1.454,1.864-0.896,2.917L69.513,73.933z M69.513,73.933"/>
		<g>
			<path fill="#32A98A" d="M41.725,108.646l-24.984-6.778c-0.552-0.15-1.14-0.075-1.636,0.21c-0.497,0.285-0.859,0.755-1.01,1.307
				c-2.053,7.57-3.094,15.417-3.094,23.32c0,1.354,0.033,2.71,0.099,4.15c0.054,1.155,1.007,2.056,2.153,2.056
				c0.034,0,0.068,0,0.102-0.001l25.859-1.195c0.57-0.026,1.109-0.278,1.494-0.701c0.386-0.423,0.587-0.982,0.562-1.553
				c-0.045-0.972-0.066-1.872-0.066-2.756c0-5.232,0.686-10.419,2.041-15.413C43.553,110.144,42.874,108.958,41.725,108.646
				L41.725,108.646z M41.725,108.646"/>
			<path fill="#32A98A" d="M138.428,46.607c-9.414-4.538-19.472-7.351-29.895-8.36c-0.573-0.058-1.138,0.118-1.58,0.481
				c-0.44,0.364-0.72,0.888-0.775,1.458l-2.496,25.766c-0.115,1.186,0.755,2.241,1.94,2.355c6.869,0.666,13.494,2.518,19.691,5.506
				c0.295,0.142,0.615,0.214,0.938,0.214c0.239,0,0.479-0.041,0.71-0.122c0.541-0.187,0.984-0.584,1.232-1.099l11.241-23.319
				C139.952,48.414,139.501,47.124,138.428,46.607L138.428,46.607z M138.428,46.607"/>
		</g>
		<path fill="#32A98A" d="M176.45,82.794c0.14-0.555,0.053-1.142-0.241-1.632c-5.354-8.956-12.179-16.841-20.287-23.436
			c-0.443-0.36-1.01-0.529-1.581-0.472c-0.57,0.058-1.092,0.34-1.452,0.784l-16.335,20.083c-0.36,0.444-0.53,1.013-0.471,1.581
			c0.059,0.57,0.341,1.092,0.784,1.454c5.365,4.363,9.879,9.577,13.421,15.501c0.403,0.675,1.118,1.051,1.854,1.051
			c0.377,0,0.757-0.1,1.104-0.306l22.219-13.281C175.955,83.827,176.311,83.35,176.45,82.794L176.45,82.794z M176.45,82.794"/>
		<path fill="#32A98A" d="M184.699,100.105c-0.356-1.137-1.567-1.771-2.703-1.414l-24.702,7.741
			c-1.137,0.355-1.771,1.565-1.413,2.701c1.773,5.66,2.671,11.572,2.671,17.571c0,0.883-0.021,1.784-0.067,2.755
			c-0.025,0.571,0.177,1.13,0.563,1.553c0.384,0.422,0.923,0.675,1.493,0.702l25.859,1.193c0.034,0.002,0.067,0.003,0.102,0.003
			c1.145,0,2.1-0.901,2.153-2.058c0.066-1.439,0.099-2.797,0.099-4.148C188.753,117.639,187.389,108.69,184.699,100.105
			L184.699,100.105z M184.699,100.105"/>
		<path fill="#32A98A" d="M99.8,122.126c-0.372,0-0.742,0.013-1.111,0.032l-35.042-20.676c-0.858-0.508-1.948-0.38-2.667,0.31
			s-0.891,1.771-0.423,2.649l19.116,35.827c-0.069,0.691-0.108,1.388-0.108,2.091c0,5.403,2.105,10.484,5.927,14.307
			c3.82,3.82,8.902,5.925,14.307,5.925s10.486-2.104,14.306-5.925c3.822-3.822,5.927-8.903,5.927-14.307
			c0-5.404-2.104-10.486-5.927-14.307C110.286,124.23,105.205,122.126,99.8,122.126L99.8,122.126z M99.8,122.126"/>
	</g>
</g>
</svg>
