<?xml version="1.0" encoding="utf-8"?>
<!-- Generator: Adobe Illustrator 16.0.0, SVG Export Plug-In . SVG Version: 6.00 Build 0)  -->
<!DOCTYPE svg PUBLIC "-//W3C//DTD SVG 1.1//EN" "http://www.w3.org/Graphics/SVG/1.1/DTD/svg11.dtd">
<svg version="1.1" id="Layer_1" xmlns="http://www.w3.org/2000/svg" xmlns:xlink="http://www.w3.org/1999/xlink" x="0px" y="0px"
	 width="200px" height="200px" viewBox="0 0 200 200" enable-background="new 0 0 200 200" xml:space="preserve">
<g id="Flat_copy">
	<path fill="#FFFFFF" d="M123.76,24.074c-16.972,6.177-27.695,22.104-26.479,39.533l0.411,6.724l-6.789-0.822
		c-24.705-3.153-46.298-13.859-64.632-31.846l-8.961-8.92l-2.308,6.588c-4.886,14.687-1.762,30.202,8.415,40.637
		c5.432,5.767,4.205,6.589-5.156,3.153c-3.259-1.092-6.113-1.92-6.383-1.509c-0.946,0.963,2.308,13.454,4.886,18.398
		c3.53,6.87,10.723,13.589,18.604,17.576l6.653,3.153l-7.875,0.136c-7.599,0-7.875,0.135-7.059,3.024
		c2.713,8.919,13.442,18.397,25.387,22.514l8.415,2.878l-7.329,4.392c-10.858,6.325-23.625,9.89-36.392,10.154
		c-6.107,0.135-11.128,0.688-11.128,1.104c0,1.368,16.566,9.05,26.203,12.08c28.921,8.92,63.275,5.074,89.072-10.159
		c18.333-10.847,36.655-32.398,45.218-53.269c4.621-11.11,9.23-31.435,9.23-41.172c0-6.318,0.411-7.14,8.011-14.686
		c4.486-4.393,8.691-9.196,9.508-10.57c1.361-2.613,1.215-2.613-5.702-0.276c-11.539,4.123-13.172,3.57-7.465-2.607
		c4.206-4.393,9.232-12.355,9.232-14.687c0-0.411-2.031,0.271-4.346,1.51c-2.442,1.362-7.875,3.423-11.95,4.656l-7.33,2.337
		l-6.652-4.533c-3.67-2.466-8.821-5.215-11.539-6.037C140.603,21.608,130.008,21.878,123.76,24.074z"/>
</g>
</svg>
